<?xml version="1.0" standalone="no"?><!DOCTYPE svg PUBLIC "-//W3C//DTD SVG 1.1//EN" "http://www.w3.org/Graphics/SVG/1.1/DTD/svg11.dtd"><svg t="1728618289297" class="icon" viewBox="0 0 1024 1024" version="1.1" xmlns="http://www.w3.org/2000/svg" p-id="4522" xmlns:xlink="http://www.w3.org/1999/xlink" width="200" height="200"><path d="M713.03705 26.773987l284.25529 284.211072v401.963555L713.03705 997.248122H311.051386L26.70766 713.059159V310.985059L311.051386 26.773987h401.985664m11.054495-26.773987H299.930564L0 299.952673V724.091545l299.930564 299.908455h424.116763L1024.088436 724.091545V299.952673z m0 0" p-id="4523"></path><path d="M512.044218 260.333362a251.62242 251.62242 0 1 1-251.62242 251.62242A251.62242 251.62242 0 0 1 512.044218 260.333362m0-26.773987a277.158304 277.158304 0 1 0 108.334053 21.843682 277.887901 277.887901 0 0 0-108.334053-21.843682z m1.171776 530.61577z m0 0" p-id="4524"></path><path d="M472.535452 638.109681a38.646515 38.646515 0 1 0 19.323258-33.473011 38.646515 38.646515 0 0 0-19.323258 33.473011z m0 0" p-id="4525"></path><path d="M513.10545 259.913291h-0.972796a252.175145 252.175145 0 0 0 0 504.328181h0.22109a126.142845 126.142845 0 0 1-0.22109-252.28569h0.331635a126.021245 126.021245 0 0 0 0.641161-252.042491z m-1.171777 164.048709a38.646515 38.646515 0 1 1 38.75706-38.668624 38.646515 38.646515 0 0 1-38.75706 38.646515zM567.935746 94.051645h-111.362985a12.889541 12.889541 0 0 1-12.845323-12.845323V71.876328a12.889541 12.889541 0 0 1 12.845323-12.845324h111.362985a12.889541 12.889541 0 0 1 12.845323 12.845324v9.307885a12.823214 12.823214 0 0 1-12.845323 12.845323z m0 53.968046h-111.362985a12.889541 12.889541 0 0 1-12.845323-12.845324v-9.307885a12.889541 12.889541 0 0 1 12.845323-12.845323h111.362985a12.889541 12.889541 0 0 1 12.845323 12.845323v9.241558a12.823214 12.823214 0 0 1-12.845323 12.845324z m0 53.968045h-111.362985a12.889541 12.889541 0 0 1-12.845323-12.845323v-9.307885a12.889541 12.889541 0 0 1 12.845323-12.845323h111.362985a12.889541 12.889541 0 0 1 12.845323 12.845323v9.307885a12.823214 12.823214 0 0 1-12.845323 12.845323z m0 0M567.62622 856.966577h-111.47353a12.889541 12.889541 0 0 1-12.845323-12.845323v-9.307885a12.889541 12.889541 0 0 1 12.845323-12.845323h111.47353a12.889541 12.889541 0 0 1 12.845323 12.845323v9.307885a12.823214 12.823214 0 0 1-12.845323 12.845323z m0 54.078591h-111.47353a12.889541 12.889541 0 0 1-12.845323-12.845323v-9.307885a12.889541 12.889541 0 0 1 12.845323-12.845324h111.47353a12.889541 12.889541 0 0 1 12.845323 12.845324v9.307885a12.889541 12.889541 0 0 1-12.845323 12.845323z m0 53.968046h-111.47353a12.889541 12.889541 0 0 1-12.845323-12.845324v-9.307885a12.889541 12.889541 0 0 1 12.845323-12.845323h111.47353a12.889541 12.889541 0 0 1 12.845323 12.845323v9.307885a12.889541 12.889541 0 0 1-12.845323 12.845324z m0 0M94.117972 456.064254v111.47353a12.889541 12.889541 0 0 1-12.845323 12.845323h-9.307885a12.889541 12.889541 0 0 1-12.845324-12.845323v-111.47353a12.889541 12.889541 0 0 1 12.845324-12.845323h9.307885a12.889541 12.889541 0 0 1 12.845323 12.845323z m53.968046 0v111.47353a12.889541 12.889541 0 0 1-12.845324 12.845323h-9.307885a12.889541 12.889541 0 0 1-12.845323-12.845323v-111.47353a12.889541 12.889541 0 0 1 12.845323-12.845323h9.307885a12.889541 12.889541 0 0 1 12.845324 12.845323z m53.968045 0v111.47353a12.889541 12.889541 0 0 1-12.845323 12.845323h-9.307885a12.889541 12.889541 0 0 1-12.845323-12.845323v-111.47353a12.889541 12.889541 0 0 1 12.845323-12.845323h9.307885a12.889541 12.889541 0 0 1 12.845323 12.845323z m0 0M857.032904 456.506434v111.47353a12.889541 12.889541 0 0 1-12.845323 12.845323h-9.307885a12.889541 12.889541 0 0 1-12.845323-12.845323v-111.47353a12.889541 12.889541 0 0 1 12.845323-12.845323h9.307885a12.889541 12.889541 0 0 1 12.845323 12.845323z m53.968046 0v111.47353a12.889541 12.889541 0 0 1-12.845323 12.845323h-9.307885a12.889541 12.889541 0 0 1-12.845324-12.845323v-111.47353a12.889541 12.889541 0 0 1 12.845324-12.845323h9.307885a12.889541 12.889541 0 0 1 12.845323 12.845323z m53.968046 0v111.47353a12.889541 12.889541 0 0 1-12.845324 12.845323h-9.307885a12.889541 12.889541 0 0 1-12.845323-12.845323v-111.47353a12.889541 12.889541 0 0 1 12.845323-12.845323h9.307885a12.823214 12.823214 0 0 1 12.845324 12.845323z m0 0M256.022109 176.916141l-78.796442 78.818551a12.867432 12.867432 0 0 1-18.195699 0l-6.632697-6.632697a12.845323 12.845323 0 0 1 0-18.195699l78.796442-78.818551a12.867432 12.867432 0 0 1 18.195699 0l6.632697 6.632697a12.845323 12.845323 0 0 1 0 18.195699z m38.204335 38.226445l-78.81855 78.796442a12.845323 12.845323 0 0 1-18.1957 0l-6.632697-6.632698a12.867432 12.867432 0 0 1 0-18.195699l78.929096-78.730115a12.845323 12.845323 0 0 1 18.195699 0l6.632697 6.632698a12.867432 12.867432 0 0 1 0 18.195699z m38.1159 38.115899l-78.796442 78.796442a12.867432 12.867432 0 0 1-18.195699 0l-6.632697-6.632697a12.867432 12.867432 0 0 1 0-18.195699l78.818551-78.796442a12.845323 12.845323 0 0 1 18.195699 0l6.632697 6.632697a12.867432 12.867432 0 0 1 0 18.195699z m0 0M795.260385 716.685033l-78.752224 78.818551a12.845323 12.845323 0 0 1-18.195699 0l-6.632697-6.632697a12.867432 12.867432 0 0 1 0-18.195699l78.818551-78.796442a12.867432 12.867432 0 0 1 18.195699 0l6.632697 6.632697a12.867432 12.867432 0 0 1 0 18.195699z m38.226445 38.1159l-78.796442 78.796442a12.867432 12.867432 0 0 1-18.195699 0l-6.632697-6.632698a12.867432 12.867432 0 0 1 0-18.195699l78.796441-78.796442a12.867432 12.867432 0 0 1 18.195699 0l6.632698 6.632698a13.066413 13.066413 0 0 1 0 18.195699z m38.115899 38.226444l-78.818551 78.818551a12.867432 12.867432 0 0 1-18.195699 0l-6.632697-6.632697a12.845323 12.845323 0 0 1 0-18.195699l78.995423-78.708006a12.867432 12.867432 0 0 1 18.195699 0l6.632697 6.632697a12.867432 12.867432 0 0 1 0 18.195699z m0 0M177.048795 767.977891l78.796442 78.796442a12.867432 12.867432 0 0 1 0 18.195699l-6.632697 6.632697a12.867432 12.867432 0 0 1-18.195699 0l-78.796442-78.796442a12.867432 12.867432 0 0 1 0-18.195699l6.632697-6.632697a12.867432 12.867432 0 0 1 18.195699 0zM215.120477 729.839883l78.796442 78.796441a12.867432 12.867432 0 0 1 0 18.195699l-6.632698 6.632698a12.867432 12.867432 0 0 1-18.195699 0L190.314189 754.601952a12.867432 12.867432 0 0 1 0-18.195699l6.632698-6.632697a12.867432 12.867432 0 0 1 18.195699 0z m38.226444-38.226445l78.796442 78.796442a12.867432 12.867432 0 0 1 0 18.195699l-6.632697 6.632697a12.867432 12.867432 0 0 1-18.195699 0l-78.818551-78.796442a12.867432 12.867432 0 0 1 0-18.195699l6.632697-6.632697a13.066413 13.066413 0 0 1 18.195699 0z m0 0M716.773469 228.739615l78.818551 78.818551a12.867432 12.867432 0 0 1 0 18.195699l-6.632697 6.632697a12.867432 12.867432 0 0 1-18.195699 0l-78.796442-78.796442a12.867432 12.867432 0 0 1 0-18.195699l6.632697-6.632697a13.066413 13.066413 0 0 1 18.195699 0z m38.1159-38.1159l78.796442 78.818551a12.867432 12.867432 0 0 1 0 18.195699l-6.632698 6.632697a12.867432 12.867432 0 0 1-18.195699 0L730.171517 215.363676a12.867432 12.867432 0 0 1 0-18.195699l6.632698-6.632698a12.845323 12.845323 0 0 1 18.195699 0z m38.226444-38.115899l78.796442 78.796442a12.867432 12.867432 0 0 1 0 18.195699l-6.632697 6.632697a12.867432 12.867432 0 0 1-18.195699 0L768.176872 177.336212a12.867432 12.867432 0 0 1 0-18.195699l6.632697-6.632697a12.977977 12.977977 0 0 1 18.306244 0z m0 0" p-id="4526"></path></svg>